<svg width="64" height="64" viewBox="0 0 64 64" fill="none" xmlns="http://www.w3.org/2000/svg">
<path d="M31.9438 37.8726C35.1618 37.8726 37.7705 35.2639 37.7705 32.0459C37.7705 28.8279 35.1618 26.2192 31.9438 26.2192C28.7258 26.2192 26.1171 28.8279 26.1171 32.0459C26.1171 35.2639 28.7258 37.8726 31.9438 37.8726Z" fill="#61DAFB"/>
<path d="M31.9438 53.473C36.5174 57.9214 41.0284 60.5528 44.6623 60.5528C45.8527 60.5528 46.9804 60.3022 47.9202 59.7383C51.1781 57.8587 52.3685 53.1598 51.2408 46.456C51.0528 45.2656 50.8022 44.0752 50.4889 42.8221C51.742 42.4462 52.8697 42.0703 53.9975 41.6944C60.3254 39.2509 63.8339 35.8677 63.8339 32.1712C63.8339 28.412 60.3254 25.0288 53.9975 22.648C52.8697 22.2094 51.742 21.8335 50.4889 21.5203C50.8022 20.2672 51.0528 19.0768 51.2408 17.8864C52.3059 11.0573 51.1155 6.29571 47.8575 4.41614C46.9178 3.85226 45.79 3.60165 44.5996 3.60165C41.0284 3.60165 36.4548 6.23306 31.8812 10.6814C27.3702 6.23306 22.8592 3.60165 19.2253 3.60165C18.035 3.60165 16.9072 3.85226 15.9674 4.41614C12.7095 6.29571 11.5191 10.9946 12.6468 17.6985C12.8348 18.8889 13.0854 20.0793 13.3987 21.3323C12.1456 21.7082 11.0179 22.0841 9.89012 22.4601C3.56222 24.9035 0.0536804 28.2867 0.0536804 31.9832C0.0536804 35.7424 3.56222 39.1256 9.89012 41.5064C11.0179 41.945 12.1456 42.3209 13.3987 42.6342C13.0854 43.8872 12.8348 45.0776 12.6468 46.268C11.5817 52.9718 12.7721 57.7334 15.9674 59.5503C16.9072 60.1142 18.035 60.3648 19.2253 60.3648C22.8592 60.4901 27.3702 57.8587 31.9438 53.473ZM28.4353 45.015C29.563 45.0776 30.7534 45.0776 31.9438 45.0776C33.1342 45.0776 34.3246 45.0776 35.4523 45.015C34.3246 46.5186 33.1342 47.897 31.9438 49.2127C30.7534 47.897 29.563 46.5186 28.4353 45.015ZM20.6664 38.5617C21.2929 39.6268 21.8568 40.6293 22.5459 41.6317C20.6037 41.3811 18.7868 41.0678 17.0325 40.6919C17.5964 39.0003 18.2229 37.246 18.9747 35.4918C19.476 36.4942 20.0398 37.5593 20.6664 38.5617ZM17.0325 23.4625C18.7868 23.0866 20.6037 22.7733 22.5459 22.5227C21.9194 23.5251 21.2929 24.5276 20.6664 25.5927C20.0398 26.6578 19.476 27.6602 18.9747 28.7253C18.1603 26.9084 17.5337 25.1541 17.0325 23.4625ZM20.4784 32.0459C21.2929 30.3543 22.17 28.6627 23.1725 26.971C24.1122 25.3421 25.1773 23.7131 26.2424 22.0841C28.122 21.9588 30.0016 21.8962 31.9438 21.8962C33.9487 21.8962 35.8283 21.9588 37.6452 22.0841C38.7729 23.7131 39.7754 25.3421 40.7152 26.971C41.7176 28.6627 42.5947 30.3543 43.4092 32.0459C42.5947 33.7375 41.7176 35.4291 40.7152 37.1207C39.7754 38.7497 38.7103 40.3787 37.6452 42.0076C35.7656 42.1329 33.886 42.1956 31.9438 42.1956C29.9389 42.1956 28.0594 42.1329 26.2424 42.0076C25.1147 40.3787 24.1122 38.7497 23.1725 37.1207C22.17 35.4291 21.2929 33.7375 20.4784 32.0459ZM44.9755 28.6627L43.2839 25.53C42.6574 24.4649 42.0935 23.4625 41.4043 22.4601C43.3466 22.7107 45.1635 23.0239 46.9178 23.3998C46.3539 25.1541 45.7274 26.9084 44.9755 28.6627ZM44.9755 35.4291C45.7274 37.1834 46.3539 38.9377 46.9178 40.6293C45.1635 41.0052 43.3466 41.3185 41.4043 41.5691C42.0309 40.5666 42.6574 39.5642 43.2839 38.4991C43.8478 37.5593 44.4117 36.4942 44.9755 35.4291ZM46.4165 57.1695C45.9153 57.4828 45.2888 57.6081 44.5996 57.6081C41.5296 57.6081 37.7078 55.102 33.9487 51.3429C35.7656 49.4006 37.5199 47.2078 39.2741 44.7643C42.2188 44.5137 45.0382 44.0752 47.6696 43.4486C47.9828 44.5764 48.1708 45.7041 48.3588 46.8319C49.2359 52.1573 48.5467 55.9791 46.4165 57.1695ZM49.6745 24.1517C56.6915 26.1566 60.8893 29.2265 60.8893 32.0459C60.8893 34.4893 58.0072 36.9328 52.9324 38.875C51.93 39.2509 50.8022 39.6268 49.6745 39.9401C48.86 37.3713 47.8575 34.7399 46.6045 32.0459C47.8575 29.3518 48.9226 26.7204 49.6745 24.1517ZM44.6623 6.48367C45.3514 6.48367 45.9153 6.60897 46.4792 6.92224C48.5467 8.11263 49.2986 11.8718 48.4214 17.2599C48.2335 18.325 47.9828 19.4527 47.7322 20.6431C45.1008 20.0793 42.2815 19.6407 39.3368 19.3274C37.6452 16.884 35.8283 14.6911 34.0113 12.7489C37.7705 9.05242 41.5923 6.48367 44.6623 6.48367ZM35.4523 19.0768C34.3246 19.0142 33.1342 19.0142 31.9438 19.0142C30.7534 19.0142 29.563 19.0142 28.4353 19.0768C29.563 17.5732 30.7534 16.1948 31.9438 14.8791C33.1342 16.1948 34.3246 17.6358 35.4523 19.0768ZM17.4711 6.92224C17.9723 6.60897 18.5988 6.48367 19.288 6.48367C22.358 6.48367 26.1798 8.98977 29.9389 12.7489C28.122 14.6911 26.3677 16.884 24.6135 19.3274C21.6688 19.578 18.8494 20.0166 16.218 20.6431C15.9048 19.5154 15.7168 18.3876 15.5288 17.2599C14.6517 11.9344 15.3409 8.17529 17.4711 6.92224ZM14.2131 39.9401C7.19607 37.9352 2.99835 34.8653 2.99835 32.0459C2.99835 29.6024 5.88036 27.159 10.9552 25.2168C11.9577 24.8409 13.0854 24.4649 14.2131 24.1517C15.0276 26.7204 16.0301 29.3518 17.2831 32.0459C16.0301 34.7399 14.965 37.434 14.2131 39.9401ZM15.5288 46.8319C15.7168 45.7668 15.9674 44.639 16.218 43.4486C18.8494 44.0125 21.6688 44.4511 24.6135 44.7643C26.3051 47.2078 28.122 49.4006 29.9389 51.3429C26.1798 55.0394 22.358 57.6081 19.288 57.6081C18.5988 57.6081 18.035 57.4828 17.4711 57.1695C15.3409 55.9791 14.6517 52.1573 15.5288 46.8319Z" fill="#61DAFB"/>
</svg>
