<svg width="80" height="64" viewBox="0 0 80 64" fill="none" xmlns="http://www.w3.org/2000/svg">
<g clip-path="url(#clip0_1_103)">
<path d="M22.5258 25.3763C22.4359 28.2075 23.8493 29.4613 23.8842 30.2575C23.8676 30.4196 23.8124 30.5753 23.7234 30.7116C23.6343 30.848 23.5139 30.961 23.3723 31.0413L21.7741 32.1613C21.5673 32.3064 21.3235 32.3896 21.0712 32.4013C21.0175 32.3988 20.0486 32.63 18.5141 29.2C17.5778 30.37 16.3867 31.3099 15.0317 31.948C13.6767 32.5861 12.1938 32.9053 10.6966 32.8813C8.66395 32.9925 3.15518 31.7263 3.43861 25.855C3.24009 21.07 7.6913 18.0975 12.2948 18.3488C13.1813 18.3513 14.9918 18.395 18.162 19.1325V17.18C18.4978 13.8725 16.3265 11.3063 12.567 11.6913C12.2674 11.6925 10.1448 11.6288 6.84351 12.955C5.92455 13.3775 5.80718 13.3075 5.50128 13.3075C4.57607 13.3075 4.95689 10.6225 5.13419 10.2825C5.78471 9.4825 9.61163 7.98875 13.3674 8.01C15.8786 7.78766 18.3764 8.56356 20.3208 10.17C21.1112 11.0551 21.7142 12.0914 22.0934 13.2163C22.4726 14.3412 22.6201 15.5314 22.527 16.715L22.5258 25.3763ZM11.7355 29.425C15.7846 29.3663 17.499 26.9288 17.8898 25.6163C18.1969 24.36 18.1457 23.565 18.1457 22.1913C16.9383 21.9013 15.2003 21.585 13.2063 21.5825C11.3147 21.44 7.85986 22.2863 7.99471 25.615C7.83988 27.7138 9.38314 29.54 11.7355 29.425ZM33.0763 32.3063C32.0949 32.3963 31.638 31.6988 31.4931 31.01L25.2752 10.4288C25.154 10.0813 25.0741 9.7225 25.0354 9.35625C25.0125 9.20526 25.0504 9.05132 25.1407 8.92827C25.2311 8.80522 25.3666 8.72311 25.5174 8.7C25.5473 8.695 25.2514 8.7 28.2955 8.7C29.3918 8.59 29.7488 9.45375 29.8625 9.99625L34.3224 27.6L38.4627 9.99625C38.5289 9.59375 38.8298 8.6125 40.0609 8.71625H42.2035C42.4745 8.69375 43.5907 8.65375 43.7867 10.0125L47.9595 27.8413L52.563 10.0125C52.623 9.74 52.9027 8.59125 54.1462 8.71625H56.6085C56.7146 8.7 57.3763 8.615 57.264 9.78875C57.2103 10.02 57.6897 8.45625 50.6777 31.0263C50.5341 31.715 50.0759 32.4125 49.0945 32.3225H46.7609C45.3949 32.4662 45.1989 31.115 45.1776 30.9788L41.0373 13.8375L36.9445 30.9613C36.9245 31.0975 36.7285 32.4488 35.3612 32.305H33.0763V32.3063ZM67.2227 33.01C66.4885 33.0112 62.9875 32.9725 60.0608 31.4738C59.7693 31.3502 59.521 31.1427 59.3473 30.8777C59.1737 30.6126 59.0827 30.3019 59.0857 29.985V28.6413C59.0857 27.585 59.8598 27.7788 60.1882 27.905C61.4417 28.4125 62.2458 28.7975 63.7853 29.105C68.3614 30.0463 70.3741 28.8175 70.8673 28.545C72.5092 27.5688 72.6391 25.335 71.5228 24.1763C70.2143 23.0775 69.59 23.0363 64.8891 21.5513C64.3098 21.39 59.4328 19.85 59.4215 15.0063C59.3454 11.4763 62.5492 7.98375 68.1017 8.0125C69.6837 8.01125 73.8989 8.52875 75.0401 9.965C75.2087 10.2263 75.2923 10.5338 75.2798 10.845V12.1088C75.2798 12.6638 75.0776 12.9413 74.6718 12.9413C73.7091 12.8338 72.0011 11.545 68.5337 11.5975C67.6734 11.5525 63.5531 11.7113 63.7379 14.7188C63.6842 17.0888 67.0604 17.9775 67.4462 18.08C71.9986 19.4513 73.5206 19.6788 75.3273 21.7775C77.4674 24.5588 76.3137 27.815 75.8704 28.7075C73.4881 33.3938 67.3276 33.0125 67.2227 33.01ZM72.242 46.1175C63.4982 52.5825 50.805 56.0238 39.9673 56.0238C25.3439 56.1203 11.2133 50.7371 0.353351 40.9325C-0.461977 40.1963 0.25721 39.1875 1.24859 39.7488C13.2955 46.6477 26.9352 50.2726 40.8138 50.2638C51.178 50.2081 61.4291 48.1032 70.9784 44.07C72.4493 43.445 73.6966 45.045 72.242 46.1175ZM75.8867 41.9563C74.7679 40.5163 68.485 41.2838 65.672 41.62C64.8242 41.7163 64.6806 40.98 65.4485 40.4363C70.4515 36.915 78.6685 37.9237 79.6124 39.1075C80.5551 40.2912 79.3565 48.5338 74.673 52.4713C73.9538 53.08 73.2659 52.7588 73.5855 51.9588C74.6393 49.3025 77.0054 43.3975 75.8867 41.9563Z" fill="#FFCA1D"/>
</g>
<defs>
<clipPath id="clip0_1_103">
<rect width="79.9096" height="64" fill="white"/>
</clipPath>
</defs>
</svg>
