<svg width="64" height="64" viewBox="0 0 64 64" fill="none" xmlns="http://www.w3.org/2000/svg">
<path d="M24.2506 30.0315H37.3824C41.0344 30.0315 43.9485 27.0189 43.9485 23.3548V10.8254C43.9485 7.25976 40.9482 4.59151 37.3824 3.98901C32.9806 3.26351 28.1976 3.30038 24.2506 4.00113C18.6929 4.98488 17.6847 7.03838 17.6847 10.8378V13.5194H30.8287V17.5143H12.7541C8.93024 17.5143 5.58549 19.8135 4.54049 24.1786C3.33549 29.183 3.28636 32.3061 4.54049 37.5319C5.47499 41.4175 7.70049 44.1961 11.5245 44.1961H16.0371V38.196C16.037 33.8556 19.7872 30.0315 24.2506 30.0315Z" fill="#347AB4"/>
<path d="M59.3719 26.1715C58.425 22.3721 56.63 19.5071 52.806 19.5071H47.8756V25.3354C47.8756 29.8603 44.0391 33.6718 39.6619 33.6718H26.53C22.9395 33.6718 19.964 36.746 19.964 40.3485V52.8658C19.964 56.4313 23.0625 58.5215 26.53 59.5424C30.6859 60.7595 34.6819 60.981 39.6617 59.5424C42.9695 58.583 46.2279 56.6529 46.2279 52.8658V50.2411H33.1084V46.189H52.8059C56.63 46.189 58.0439 43.5208 59.3717 39.5248C60.749 35.4055 60.6876 31.4463 59.3719 26.1715Z" fill="#FFCA1D"/>
<path d="M23.4269 11.1993C22.117 11.1993 21.055 10.1254 21.055 8.80375C21.0667 7.47025 22.117 6.39638 23.4269 6.39638C24.725 6.39638 25.7989 7.482 25.7989 8.80375C25.7987 10.1254 24.7367 11.1993 23.4269 11.1993Z" fill="white"/>
<path d="M39.3635 57.5095C38.0536 57.5095 36.9915 56.4356 36.9915 55.114C37.0034 53.7805 38.0535 52.7066 39.3635 52.7066C40.6616 52.7066 41.7355 53.7923 41.7355 55.114C41.7355 56.4356 40.6735 57.5095 39.3635 57.5095Z" fill="white"/>
</svg>
